<?xml version="1.0" standalone="no"?>
<!DOCTYPE svg PUBLIC "-//W3C//DTD SVG 20010904//EN"
 "http://www.w3.org/TR/2001/REC-SVG-20010904/DTD/svg10.dtd">
<svg version="1.0" xmlns="http://www.w3.org/2000/svg"
 width="225.000000pt" height="161.000000pt" viewBox="0 0 225.000000 161.000000"
 preserveAspectRatio="xMidYMid meet">

<g transform="translate(0.000000,161.000000) scale(0.100000,-0.100000)"
fill="#000000" stroke="none">
<path d="M1020 1239 c-69 -18 -115 -33 -125 -39 -5 -4 -31 -19 -57 -33 -135
-74 -221 -192 -262 -358 -45 -181 13 -388 145 -519 109 -108 279 -177 410
-167 151 13 188 34 62 36 -42 1 -82 6 -87 11 -6 6 -18 10 -28 10 -10 0 -26 4
-36 9 -68 34 -95 50 -156 99 -74 59 -156 172 -156 216 0 13 -4 27 -9 30 -8 5
-22 101 -22 151 0 50 14 146 22 151 5 3 9 16 9 30 0 27 56 121 99 167 31 34
145 117 160 117 6 0 11 5 11 10 0 6 9 10 19 10 11 0 23 5 26 10 3 6 17 10 30
10 13 0 27 5 30 10 3 6 45 10 93 11 l87 1 -60 19 c-64 20 -147 23 -205 8z"/>
<path d="M1133 1127 c-64 -16 -52 -27 29 -27 113 0 199 -34 284 -113 96 -88
147 -242 123 -368 -40 -212 -199 -349 -407 -349 -40 0 -72 -3 -72 -8 0 -10 97
-32 142 -32 159 0 325 92 402 224 111 189 79 405 -82 558 -50 48 -80 67 -157
98 -72 30 -181 36 -262 17z"/>
<path d="M1045 1090 c-3 -5 -1 -10 4 -10 6 0 11 5 11 10 0 6 -2 10 -4 10 -3 0
-8 -4 -11 -10z"/>
<path d="M1016 932 c-61 -22 -106 -73 -106 -119 0 -45 63 -107 153 -151 85
-43 127 -77 127 -106 0 -34 -40 -66 -81 -66 -43 0 -132 41 -152 71 -24 33 -33
16 -27 -53 l5 -63 60 -6 c33 -4 76 -10 95 -13 48 -10 153 16 195 48 49 37 61
88 35 141 -16 32 -34 49 -86 78 -37 20 -71 37 -76 37 -5 0 -29 14 -54 30 -35
24 -44 37 -44 59 0 74 121 82 184 12 11 -12 23 -21 28 -21 13 0 9 96 -4 108
-12 9 -64 18 -163 27 -23 3 -61 -3 -89 -13z"/>
</g>
</svg>
