<?xml version="1.0" standalone="no"?>
<!DOCTYPE svg PUBLIC "-//W3C//DTD SVG 20010904//EN"
 "http://www.w3.org/TR/2001/REC-SVG-20010904/DTD/svg10.dtd">
<svg version="1.0" xmlns="http://www.w3.org/2000/svg"
 width="547.000000pt" height="431.000000pt" viewBox="0 0 547.000000 431.000000"
 preserveAspectRatio="xMidYMid meet">

<g transform="translate(0.000000,431.000000) scale(0.100000,-0.100000)"
fill="#000000" stroke="none">
<path d="M2520 3569 c-30 -5 -82 -17 -114 -28 -33 -12 -73 -21 -90 -21 -41 0
-107 -19 -126 -35 -8 -7 -42 -20 -74 -29 -33 -8 -64 -22 -68 -30 -5 -9 -31
-22 -59 -30 -28 -9 -59 -26 -70 -40 -10 -13 -35 -27 -56 -31 -20 -3 -49 -19
-64 -33 -15 -15 -45 -43 -68 -62 -22 -19 -54 -47 -70 -61 -16 -15 -42 -30 -57
-33 -16 -4 -37 -19 -47 -34 -51 -80 -86 -124 -158 -200 -15 -15 -30 -43 -34
-62 -4 -19 -17 -46 -30 -60 -12 -14 -28 -41 -34 -61 -7 -20 -22 -49 -35 -64
-13 -15 -27 -44 -30 -65 -3 -20 -15 -48 -26 -62 -10 -14 -22 -45 -25 -69 -13
-98 -17 -111 -37 -131 -19 -19 -22 -36 -27 -202 -4 -100 -4 -251 -1 -336 5
-142 7 -158 28 -186 16 -21 26 -54 33 -103 5 -47 16 -82 29 -98 11 -14 23 -43
26 -65 4 -21 20 -55 35 -75 16 -20 29 -44 29 -53 0 -9 13 -34 29 -54 16 -20
33 -51 37 -69 3 -17 18 -43 33 -58 50 -50 78 -84 90 -106 22 -44 95 -118 130
-134 20 -9 62 -41 93 -72 32 -32 62 -57 68 -57 5 0 17 -11 25 -24 10 -14 30
-27 51 -31 20 -3 49 -19 65 -35 16 -15 45 -31 63 -34 18 -4 43 -17 55 -30 15
-16 39 -27 72 -31 27 -4 60 -16 74 -26 14 -12 58 -26 102 -33 43 -8 103 -21
133 -31 70 -21 280 -37 389 -30 52 3 100 13 128 26 42 19 90 29 207 44 88 12
28 25 -114 25 -195 1 -328 15 -354 39 -13 11 -44 21 -81 25 -38 4 -73 15 -95
31 -19 13 -52 27 -74 31 -21 4 -52 19 -70 34 -17 15 -45 31 -63 34 -17 4 -37
14 -44 22 -7 9 -26 22 -43 31 -17 8 -43 27 -57 42 -24 24 -130 105 -185 142
-62 41 -244 257 -244 289 0 9 -13 30 -30 48 -16 18 -30 44 -30 57 0 13 -13 40
-30 58 -23 27 -32 49 -39 101 -5 36 -19 82 -32 102 -18 29 -23 60 -31 162 -5
70 -16 153 -24 184 -18 73 -18 103 1 159 8 24 19 103 23 174 7 110 13 139 35
186 15 31 27 69 27 85 0 45 17 95 38 110 10 7 24 30 30 52 7 21 23 52 37 68
14 16 25 36 25 44 0 23 88 136 171 219 95 94 106 104 154 133 22 14 46 33 54
42 7 9 19 16 27 16 7 0 18 9 24 20 6 11 28 29 49 39 20 11 43 26 50 35 7 9 29
18 48 22 19 4 45 18 57 31 13 13 43 29 67 34 24 6 53 19 65 30 12 11 50 25 90
33 39 7 82 21 97 30 29 20 200 35 394 36 57 0 105 4 108 10 3 6 3 10 -2 10
-59 1 -184 24 -229 43 -52 22 -78 25 -214 29 -85 3 -180 1 -210 -3z"/>
<path d="M3240 3440 c-11 -7 1 -10 39 -10 30 0 52 2 50 4 -11 10 -76 14 -89 6z"/>
<path d="M2866 3259 c-22 -5 -45 -14 -52 -19 -6 -6 -49 -17 -95 -25 -89 -16
-111 -27 -91 -47 9 -9 77 -14 235 -18 219 -5 223 -6 271 -33 29 -16 64 -27 86
-27 35 0 139 -47 256 -116 91 -53 374 -356 374 -400 0 -6 13 -30 29 -55 16
-24 34 -63 41 -87 6 -23 20 -57 30 -75 12 -21 23 -69 31 -132 6 -55 19 -125
30 -155 24 -70 24 -128 -2 -215 -11 -39 -24 -110 -29 -158 -5 -56 -16 -100
-28 -121 -11 -19 -27 -58 -36 -88 -9 -31 -22 -61 -30 -67 -8 -7 -23 -34 -32
-59 -24 -64 -72 -125 -173 -224 -25 -24 -72 -70 -105 -102 -59 -57 -80 -72
-191 -131 -27 -14 -66 -35 -85 -45 -19 -11 -53 -20 -76 -20 -25 0 -59 -10 -90
-27 -48 -26 -55 -26 -271 -32 -187 -5 -225 -9 -239 -22 -15 -16 -14 -18 17
-28 19 -5 61 -15 94 -20 33 -5 78 -17 100 -27 61 -26 261 -32 345 -10 36 10
113 26 172 36 65 11 118 26 135 38 15 11 46 23 68 27 21 4 51 15 65 25 14 10
50 30 80 44 84 40 124 67 196 132 100 90 214 207 214 220 0 6 7 18 17 25 9 8
26 37 39 64 12 28 29 57 37 64 9 7 21 29 28 49 7 20 20 48 31 62 10 14 23 54
29 90 6 36 21 79 32 95 21 29 22 42 25 305 l3 275 -26 48 c-14 26 -28 73 -31
103 -4 31 -17 70 -28 87 -12 18 -28 48 -36 67 -7 19 -24 48 -37 63 -13 16 -23
34 -23 41 0 7 -13 32 -30 54 -16 23 -30 45 -30 50 0 19 -262 267 -305 289 -16
8 -39 24 -50 34 -11 10 -40 25 -63 33 -24 9 -55 25 -69 36 -14 10 -41 22 -62
26 -20 3 -52 15 -71 27 -19 11 -82 28 -140 38 -58 10 -130 25 -160 34 -61 17
-258 19 -324 4z"/>
<path d="M2485 3131 c-19 -8 -19 -8 3 -20 27 -14 76 4 51 20 -17 10 -27 10
-54 0z"/>
<path d="M2471 2685 c-29 -14 -77 -29 -107 -34 -33 -5 -63 -17 -77 -29 -92
-89 -126 -125 -149 -165 -24 -39 -28 -55 -28 -125 0 -71 3 -84 25 -110 14 -17
25 -35 25 -41 0 -21 122 -140 154 -151 19 -6 41 -19 51 -30 10 -11 39 -26 65
-35 27 -9 54 -23 60 -30 7 -8 31 -20 54 -26 22 -6 52 -21 66 -34 14 -13 44
-28 66 -34 23 -6 47 -18 54 -26 6 -8 31 -25 55 -39 24 -14 62 -49 84 -77 36
-45 41 -58 41 -103 0 -63 -25 -101 -100 -154 -52 -36 -54 -37 -150 -37 -81 0
-101 3 -118 18 -11 10 -41 25 -67 33 -76 22 -238 137 -251 176 -6 21 -51 35
-66 20 -7 -7 -7 -36 1 -93 6 -45 11 -121 11 -169 0 -125 -1 -125 151 -121 112
2 132 0 207 -24 77 -25 93 -27 200 -22 83 3 133 11 172 25 30 11 84 24 119 28
48 5 71 13 95 34 17 15 41 30 53 34 43 13 110 111 139 202 l27 87 -18 56 c-45
137 -94 195 -227 268 -22 12 -48 29 -57 37 -9 9 -37 22 -61 31 -25 9 -54 24
-65 34 -11 10 -42 24 -69 30 -26 7 -65 23 -85 36 -19 14 -40 25 -45 25 -9 0
-65 44 -127 101 -38 36 -39 38 -39 108 0 55 4 74 18 86 53 47 84 65 128 75 65
15 186 4 216 -19 13 -10 43 -27 68 -38 25 -11 73 -48 107 -82 l62 -62 17 26
c14 22 16 41 11 123 -12 183 -27 199 -180 193 -76 -3 -92 0 -130 20 -37 21
-58 24 -187 27 -138 3 -148 2 -199 -23z"/>
<path d="M2130 1686 c0 -9 5 -16 10 -16 6 0 10 4 10 9 0 6 -4 13 -10 16 -5 3
-10 -1 -10 -9z"/>
<path d="M2498 823 c-10 -3 -18 -8 -18 -13 0 -14 38 -22 56 -12 16 9 16 10 -2
19 -10 5 -27 8 -36 6z"/>
<path d="M3288 493 c12 -2 30 -2 40 0 9 3 -1 5 -23 4 -22 0 -30 -2 -17 -4z"/>
</g>
</svg>
